<svg version="1.1" xmlns="http://www.w3.org/2000/svg" style="display: none;">

<symbol id="twitter" viewBox="0 0 510 510"><title>twitter-logo-on-black-background</title><path d="M459,0H51C22.95,0,0,22.95,0,51v408c0,28.05,22.95,51,51,51h408c28.05,0,51-22.95,51-51V51C510,22.95,487.05,0,459,0z M400.35,186.15c-2.55,117.3-76.5,198.9-188.7,204C165.75,392.7,132.6,377.4,102,359.55c33.15,5.101,76.5-7.649,99.45-28.05 c-33.15-2.55-53.55-20.4-63.75-48.45c10.2,2.55,20.4,0,28.05,0c-30.6-10.2-51-28.05-53.55-68.85c7.65,5.1,17.85,7.65,28.05,7.65 c-22.95-12.75-38.25-61.2-20.4-91.8c33.15,35.7,73.95,66.3,140.25,71.4c-17.85-71.4,79.051-109.65,117.301-61.2 c17.85-2.55,30.6-10.2,43.35-15.3c-5.1,17.85-15.3,28.05-28.05,38.25c12.75-2.55,25.5-5.1,35.7-10.2 C425.85,165.75,413.1,175.95,400.35,186.15z"/></symbol>

<symbol id="github" viewBox="0 0 438.536 438.536"><title>github-sign</title><path d="M158.173,352.599c-3.049,0.568-4.381,1.999-3.999,4.281c0.38,2.283,2.093,3.046,5.138,2.283 c3.049-0.76,4.38-2.095,3.997-3.997C162.931,353.074,161.218,352.216,158.173,352.599z"/><path d="M141.898,354.885c-3.046,0-4.568,1.041-4.568,3.139c0,2.474,1.619,3.518,4.853,3.138c3.046,0,4.57-1.047,4.57-3.138 C146.753,355.553,145.134,354.502,141.898,354.885z"/><path d="M119.629,354.022c-0.76,2.095,0.478,3.519,3.711,4.284c2.855,1.137,4.664,0.568,5.424-1.714 c0.572-2.091-0.666-3.61-3.711-4.568C122.197,351.265,120.39,351.922,119.629,354.022z"/><path d="M414.41,24.123C398.326,8.042,378.964,0,356.309,0H82.225C59.577,0,40.208,8.042,24.123,24.123 C8.042,40.207,0,59.576,0,82.225v274.088c0,22.65,8.042,42.017,24.123,58.098c16.084,16.084,35.454,24.126,58.102,24.126h63.953 c4.184,0,7.327-0.144,9.42-0.424c2.092-0.288,4.184-1.526,6.279-3.717c2.096-2.187,3.14-5.376,3.14-9.562 c0-0.568-0.05-7.046-0.144-19.417c-0.097-12.375-0.144-22.176-0.144-29.41l-6.567,1.143c-4.187,0.76-9.469,1.095-15.846,0.999 c-6.374-0.096-12.99-0.76-19.841-1.998c-6.855-1.239-13.229-4.093-19.13-8.562c-5.898-4.477-10.085-10.328-12.56-17.559 l-2.856-6.571c-1.903-4.373-4.899-9.229-8.992-14.554c-4.093-5.332-8.232-8.949-12.419-10.852l-1.999-1.428 c-1.331-0.951-2.568-2.098-3.711-3.429c-1.141-1.335-1.997-2.669-2.568-3.997c-0.571-1.335-0.097-2.43,1.427-3.289 c1.524-0.855,4.281-1.279,8.28-1.279l5.708,0.855c3.808,0.76,8.516,3.042,14.134,6.851c5.614,3.806,10.229,8.754,13.846,14.843 c4.38,7.806,9.657,13.75,15.846,17.843c6.184,4.097,12.419,6.143,18.699,6.143s11.704-0.476,16.274-1.424 c4.565-0.954,8.848-2.385,12.847-4.288c1.713-12.751,6.377-22.559,13.988-29.41c-10.848-1.143-20.602-2.854-29.265-5.14 c-8.658-2.286-17.605-5.995-26.835-11.136c-9.234-5.14-16.894-11.512-22.985-19.13c-6.09-7.618-11.088-17.61-14.987-29.978 c-3.901-12.375-5.852-26.652-5.852-42.829c0-23.029,7.521-42.637,22.557-58.814c-7.044-17.32-6.379-36.732,1.997-58.242 c5.52-1.714,13.706-0.428,24.554,3.855c10.85,4.286,18.794,7.951,23.84,10.992c5.046,3.042,9.089,5.614,12.135,7.71 c17.705-4.949,35.976-7.423,54.818-7.423c18.841,0,37.115,2.474,54.821,7.423l10.849-6.852c7.426-4.57,16.18-8.757,26.269-12.562 c10.088-3.806,17.795-4.854,23.127-3.14c8.562,21.51,9.328,40.922,2.279,58.241c15.036,16.179,22.559,35.786,22.559,58.815 c0,16.18-1.951,30.505-5.852,42.969c-3.898,12.467-8.939,22.463-15.13,29.981c-6.184,7.519-13.894,13.843-23.124,18.986 c-9.232,5.137-18.178,8.853-26.84,11.132c-8.661,2.286-18.414,4.004-29.263,5.147c9.891,8.562,14.839,22.072,14.839,40.538v68.238 c0,3.237,0.472,5.852,1.424,7.851c0.958,1.998,2.478,3.374,4.571,4.141c2.102,0.76,3.949,1.235,5.571,1.424 c1.622,0.191,3.949,0.287,6.995,0.287h63.953c22.648,0,42.018-8.042,58.095-24.126c16.084-16.084,24.126-35.454,24.126-58.102 V82.225C438.533,59.576,430.491,40.204,414.41,24.123z"/><path d="M86.793,319.195c-1.331,0.948-1.141,2.471,0.572,4.565c1.906,1.902,3.427,2.189,4.57,0.855 c1.331-0.948,1.141-2.471-0.575-4.569C89.458,318.336,87.936,318.049,86.793,319.195z"/><path d="M77.374,312.057c-0.57,1.335,0.096,2.478,1.999,3.426c1.521,0.955,2.762,0.767,3.711-0.568 c0.57-1.335-0.096-2.478-1.999-3.433C79.182,310.91,77.945,311.102,77.374,312.057z"/><path d="M95.646,330.331c-1.715,0.948-1.715,2.666,0,5.137c1.713,2.478,3.328,3.142,4.853,1.998c1.714-1.334,1.714-3.142,0-5.427 C98.978,329.571,97.359,328.993,95.646,330.331z"/><path d="M105.641,343.174c-1.714,1.526-1.336,3.327,1.142,5.428c2.281,2.279,4.185,2.566,5.708,0.849 c1.524-1.519,1.143-3.326-1.142-5.42C109.068,341.751,107.164,341.463,105.641,343.174z"/></symbol>

<symbol id="linkedin" viewBox="0 0 510 510"><title>linkedin-logo</title><path d="M459,0H51C22.95,0,0,22.95,0,51v408c0,28.05,22.95,51,51,51h408c28.05,0,51-22.95,51-51V51C510,22.95,487.05,0,459,0z M153,433.5H76.5V204H153V433.5z M114.75,160.65c-25.5,0-45.9-20.4-45.9-45.9s20.4-45.9,45.9-45.9s45.9,20.4,45.9,45.9 S140.25,160.65,114.75,160.65z M433.5,433.5H357V298.35c0-20.399-17.85-38.25-38.25-38.25s-38.25,17.851-38.25,38.25V433.5H204 V204h76.5v30.6c12.75-20.4,40.8-35.7,63.75-35.7c48.45,0,89.25,40.8,89.25,89.25V433.5z"/></symbol>

<symbol id="outlook" viewBox="0 0 512 512"><title>outlook</title><g> <g> <path d="M496,112.011H288v-80c0-4.768-2.112-9.28-5.792-12.32c-3.648-3.04-8.544-4.352-13.152-3.392l-256,48 C5.472,65.707,0,72.299,0,80.011v352c0,7.68,5.472,14.304,13.056,15.712l256,48c0.96,0.192,1.952,0.288,2.944,0.288 c3.712,0,7.328-1.28,10.208-3.68c3.68-3.04,5.792-7.584,5.792-12.32v-80h208c8.832,0,16-7.168,16-16v-256 C512,119.179,504.832,112.011,496,112.011z M144,368.011c-44.096,0-80-43.072-80-96c0-52.928,35.904-96,80-96s80,43.072,80,96 C224,324.939,188.096,368.011,144,368.011z M288,144.011h161.376l-98.304,76.448L288,180.363V144.011z M480,368.011H288V218.283 l55.392,35.232c2.624,1.664,5.632,2.496,8.608,2.496c3.456,0,6.944-1.12,9.824-3.36L480,160.715V368.011z"/> </g> </g><g> <g> <ellipse cx="144" cy="272.01" rx="48" ry="64"/> </g> </g></symbol>

<symbol xmlns="http://www.w3.org/2000/svg" viewBox="0 0 260.2 213.4" id="udemy">
    <title>udemy</title>
    <path d="M88.5.9c11.6 3.6 15.2 12.9 15.2 23.5-.1 8.4-1.1 16.8-3.1 25-4.3 18.7-9.6 37.2-14 55.8-3.6 15.3-6.9 30.8-7 46.6.1 4.3.8 8.6 2 12.7 2.3 8.2 9.2 8.8 14.4 3.8 3.3-3.2 6.3-6.6 9-10.3 13-17.3 24.5-35.7 34.3-55 9.5-18.5 31.2-60.3 32.5-62.8 6.8-12.5 25.6-10.4 31.3 1.8 3.2 6.6 5 13.9 5.3 21.2.5 15.8 2 59.9 2.7 66.2 1.3 12.2 9.1 16.1 19.5 9.3 6.3-4.1 12-9.3 17.7-14.2 5.3-4.7 8.1-4.2 10.7 2.4 2.3 5.8 1.3 11.6-.6 17.1-6.4 18.6-20.3 28.5-38.8 32.5-5.9 1.3-12 1.4-18 .4-13.3-2.2-21.8-9.9-26.9-21.8-4.9-11.5-6.4-44.2-7.5-48.4-1.8 3.8-23.1 47.7-34.3 64.4-7 10.7-15.5 20.4-25.3 28.7-9.7 8.1-20.7 13.1-33.6 13.4-15.6.4-26.9-6.7-34.7-19.9-5-8.5-7.1-18-7.8-27.8-1-13.7 1.2-27.1 4.2-40.5 1-4.3 1.7-8.7 2.8-14.2-4.3 2.2-7.1 4.2-10.3 5.3-3.8 1.3-7.9 2.6-11.9 2.5C2.1 118.2 0 102.5 0 99.9c4.8-3.7 9.9-7.1 14.3-11.1 21-19 36.8-41.8 48.2-67.6C66.3 12.7 71 5.4 79.4.9c2.8-1.2 5.3-1.3 9.1 0z"
      ></path>
  </symbol>
</svg>
